<svg width="51" height="47" viewBox="0 0 51 47" fill="none" xmlns="http://www.w3.org/2000/svg">
<path d="M43.489 16.2834C48.3967 15.374 48.5072 7.4739 43.4176 7.53406C39.4347 7.58162 39.8362 11.4442 39.2976 10.6846C38.2512 9.20865 37.914 5.41178 41.9025 3.83791C45.3455 2.47949 50.081 5.23131 50.3846 10.2607C50.5791 13.4812 48.5701 19.4297 41.3569 18.4392C31.2534 17.0528 38.5827 17.1913 43.489 16.2834V16.2834Z" fill="#D99E82"/>
<path d="M14.5117 26.8611C14.5117 26.8611 15.933 30.1516 15.4574 38.3917C15.3721 39.8704 15.165 41.3799 15.1188 42.6194C12.5839 42.6194 12.8077 45.5069 13.3449 45.5069H17.4048C18.3603 45.5069 20.0531 40.6972 20.4994 34.0226C20.9456 27.3466 14.5117 26.8611 14.5117 26.8611V26.8611ZM31.1457 26.3981C31.1457 26.3981 31.9501 31.3337 36.2534 35.3698C36.6129 36.9969 37.3292 41.2904 37.581 42.6376C34.9384 42.6376 35.7875 45.5013 36.5584 45.5013H40.2601C41.5906 45.5013 41.7878 40.686 40.5483 34.7375C39.3102 28.7904 31.1457 26.3981 31.1457 26.3981Z" fill="#C1694F"/>
<path d="M45.123 18.0742C43.3701 12.8252 35.0307 12.9987 25.5413 14.206C21.2674 14.7502 20.449 7.97629 20.449 6.81092C20.449 1.73817 15.9107 -0.820594 11.3611 0.894574C10.2713 1.30448 9.39975 2.75524 8.90731 3.51349C6.1415 7.76224 2.39081 3.53448 2.02847 7.46146C1.59058 12.211 4.43613 13.8045 9.09477 14.206C11.7417 14.434 13.9339 15.7379 14.5103 21.2625C14.7257 23.3219 14.0976 29.1585 17.8511 31.1618C18.9423 35.3015 20.4196 40.4162 20.9988 43.0183C17.8483 43.6842 19.1227 46.0667 19.1227 46.0667C19.1227 46.0667 23.531 46.0066 24.4893 46.0066C25.6281 46.0066 24.7565 37.6462 23.1812 32.3146C29.846 32.3748 34.1325 30.4441 35.4909 29.8496C36.9291 33.9906 41.2996 34.9321 42.2775 36.6934C42.8832 37.7847 44.9048 41.4262 45.0768 42.9833C42.8357 43.7108 43.5505 45.4064 43.8052 45.952C45.3203 45.8918 48.3099 45.8918 48.6988 45.8918C50.2517 45.8918 47.1082 36.2332 45.7847 33.7024C44.271 30.8051 46.8773 23.3233 45.123 18.0742V18.0742Z" fill="#D99E82"/>
<path d="M22.8287 30.3992C22.8902 30.9182 23.0259 31.6457 23.1826 32.3144C29.8474 32.3746 34.1339 30.4439 35.4923 29.8494C35.1916 28.7582 35.1706 28.0727 35.2531 27.6977C30.5049 28.477 28.8905 30.7825 22.8287 30.3992ZM9.09476 14.2058C11.7416 14.4339 12.4873 15.7013 13.0651 21.226C13.2805 23.2853 14.099 29.1583 17.851 31.1616C16.8438 27.2612 15.1104 13.8309 9.09476 14.2058V14.2058Z" fill="#F4C7B5"/>
<path d="M4.48369 5.49854C0.57631 5.49854 1.81302 6.23441 1.68291 7.86564C1.55281 9.49686 1.57939 12.029 2.76853 13.3623C4.34519 15.1278 8.16584 15.1334 10.0643 13.7498C11.9627 12.3662 9.4711 5.49854 4.48369 5.49854V5.49854Z" fill="#F4C7B5"/>
<path d="M3.57436 7.82223C3.42187 8.88827 2.88326 9.48983 2.34464 9.40729C1.28141 9.24361 0.397247 7.88659 0.397247 6.81076C0.397247 5.73493 1.27022 5.46353 2.34464 5.51249C3.80379 5.57965 3.74643 6.6149 3.57436 7.82223Z" fill="#272B2B"/>
<path d="M21.2912 8.80173C21.778 12.3202 19.6725 12.856 17.9574 12.856C16.2422 12.856 13.6849 11.1073 14.113 7.58181C14.3004 6.03312 14.8894 4.51381 15.2447 3.14C15.7148 1.31711 16.9221 0.71694 17.8944 1.22757C20.2238 2.45029 20.9764 6.53956 21.2912 8.80173V8.80173Z" fill="#662113"/>
<path d="M11.3611 6.81077C12.0781 6.81077 12.6594 6.22951 12.6594 5.5125C12.6594 4.79549 12.0781 4.21423 11.3611 4.21423C10.6441 4.21423 10.0629 4.79549 10.0629 5.5125C10.0629 6.22951 10.6441 6.81077 11.3611 6.81077Z" fill="#292F33"/>
<path d="M26.7025 14.0661C26.8046 16.2093 27.97 18.5121 30.5259 19.1906C33.1854 19.8971 36.2898 19.3682 37.0592 15.7281C37.1865 15.1265 37.2411 14.0157 37.1613 13.61C34.1521 13.3596 30.5441 13.61 26.7025 14.0661V14.0661Z" fill="#C1694F"/>
<path d="M4.34381 11.5508C4.72086 11.5508 5.02652 11.2452 5.02652 10.8681C5.02652 10.4911 4.72086 10.1854 4.34381 10.1854C3.96676 10.1854 3.6611 10.4911 3.6611 10.8681C3.6611 11.2452 3.96676 11.5508 4.34381 11.5508Z" fill="#D99E82"/>
<path d="M5.24196 10.2663C5.4498 10.2663 5.61829 10.0978 5.61829 9.89C5.61829 9.68216 5.4498 9.51367 5.24196 9.51367C5.03412 9.51367 4.86563 9.68216 4.86563 9.89C4.86563 10.0978 5.03412 10.2663 5.24196 10.2663Z" fill="#D99E82"/>
<path d="M5.80855 11.2444C6.01639 11.2444 6.18488 11.0759 6.18488 10.868C6.18488 10.6602 6.01639 10.4917 5.80855 10.4917C5.60071 10.4917 5.43222 10.6602 5.43222 10.868C5.43222 11.0759 5.60071 11.2444 5.80855 11.2444Z" fill="#D99E82"/>
</svg>
