<svg width="51" height="50" viewBox="0 0 51 50" fill="none" xmlns="http://www.w3.org/2000/svg">
<path d="M47.6195 43.0077H3.17502C1.64169 43.0077 0.397247 44.2521 0.397247 45.7855V49.9521H50.3972V45.7855C50.3972 44.2521 49.1528 43.0077 47.6195 43.0077Z" fill="#FFAC33"/>
<path d="M24.0028 45.091C23.7597 46.2146 22.6486 46.9285 21.525 46.6841C20.4 46.4396 19.6861 45.3299 19.9305 44.2063L28.1805 2.03566C28.425 0.910669 29.5347 0.198172 30.6583 0.441227C31.7819 0.68567 32.4958 1.79539 32.2514 2.91899L24.0028 45.091Z" fill="#66757F"/>
<path d="M30.0681 3.15636C17.7 0.47304 5.95833 6.19524 3.84306 15.941C3.84306 15.941 3.25417 18.6549 4.61111 18.9507C5.96806 19.2452 9.27222 17.1202 9.27222 17.1202L43.2042 24.4854C43.2042 24.4854 45.3292 27.7896 46.6875 28.084C48.0444 28.3785 48.6333 25.6646 48.6333 25.6646C50.75 15.9174 42.4375 5.84107 30.0681 3.15636V3.15636Z" fill="#DD2E44"/>
<path d="M30.0681 3.15647C20.6986 1.12315 11.3889 7.37451 9.27363 17.1189C9.27363 17.1189 8.68474 19.8342 11.3986 20.4231C14.1125 21.0119 18.7736 19.1814 18.7736 19.1814L33.7028 22.4217C33.7028 22.4217 37.1861 26.0189 39.9014 26.6091C42.6153 27.198 43.2042 24.4842 43.2042 24.4842C45.3208 14.7384 39.4375 5.1898 30.0681 3.15647V3.15647Z" fill="#E1E8ED"/>
<path d="M30.0681 3.15643C25.1959 2.09949 20.8889 9.43556 18.7737 19.1814C18.7737 19.1814 22.2556 22.7799 24.9709 23.3688L26.3278 23.6633C29.0431 24.2522 33.7028 22.4216 33.7028 22.4216C35.8195 12.6772 34.9417 4.21475 30.0681 3.15643V3.15643Z" fill="#DD2E44"/>
</svg>
