<svg width="51" height="51" viewBox="0 0 51 51" fill="none" xmlns="http://www.w3.org/2000/svg">
<path d="M22.4778 48.8346H20.582C20.582 48.8346 18.8181 44.1846 19.0903 40.8679L22.9806 41.6304C23.7111 43.8124 22.4778 48.8346 22.4778 48.8346V48.8346ZM28.2333 48.8346H30.1292C30.1292 48.8346 31.8931 44.1846 31.6208 40.8679L27.7306 41.6304C27 43.8124 28.2333 48.8346 28.2333 48.8346V48.8346Z" fill="#F7DECE"/>
<path d="M19.5528 49.2154C19.6945 48.8779 19.9945 48.2515 20.0264 47.889C20.0584 47.5265 20.0737 47.3974 20.3598 47.2974C20.8417 47.1293 22.3542 47.1765 22.6139 47.2751C22.8723 47.3738 22.8764 47.6404 22.9139 47.864C22.9514 48.0876 23.0723 48.4529 23.2292 48.7529C23.3875 49.0529 23.7973 49.721 23.5917 50.189C23.5056 50.3835 23.0292 50.3807 21.4987 50.3807C19.9681 50.3807 19.5306 50.3446 19.4264 50.2168C19.3223 50.089 19.4112 49.5543 19.5528 49.2154ZM31.1584 49.2154C31.0167 48.8779 30.7167 48.2515 30.6848 47.889C30.6528 47.5265 30.6375 47.3974 30.3514 47.2974C29.8695 47.1293 28.357 47.1765 28.0973 47.2751C27.8375 47.3738 27.8348 47.6404 27.7973 47.864C27.7598 48.0876 27.6389 48.4529 27.482 48.7529C27.325 49.0529 26.9139 49.721 27.1195 50.189C27.2056 50.3835 27.682 50.3807 29.2125 50.3807C30.7431 50.3807 31.1806 50.3446 31.2848 50.2168C31.3889 50.089 31.3 49.5543 31.1584 49.2154Z" fill="#FA743E"/>
<path d="M12.4056 6.15589C12.4209 6.33227 13.6153 8.28783 14.2431 9.81561C14.8709 11.3434 15.2292 12.8684 15.5597 13.2156C16.2209 13.9087 18.4653 15.8253 19.8889 17.8587C21.3125 19.892 20.8945 21.3351 19.9722 21.917C18.75 22.6878 17.4681 22.2003 16.5875 20.8226C15.9611 19.842 13.8778 16.3656 12.7834 14.4323C12.3584 13.6809 11.6778 12.3323 11.0917 10.8573C10.5403 9.46838 10.475 7.84616 10.3917 7.64616C10.15 7.05589 8.83613 6.28922 8.78891 5.692C8.78891 5.692 12.3542 5.56005 12.4056 6.15589V6.15589ZM38.3889 6.15589C38.3736 6.33227 37.1792 8.28783 36.5514 9.81561C35.9236 11.3434 35.5653 12.8684 35.2347 13.2156C34.5736 13.9087 32.3292 15.8253 30.9056 17.8587C29.482 19.892 29.9 21.3351 30.8222 21.917C32.0445 22.6878 33.3264 22.2003 34.207 20.8226C34.8334 19.842 36.9167 16.3656 38.0111 14.4323C38.4334 13.6823 39.1153 12.3337 39.7014 10.8587C40.2528 9.46977 40.3181 7.84755 40.4014 7.64755C40.6445 7.05727 41.9584 6.29061 42.0056 5.69477C42.0056 5.692 38.4403 5.56005 38.3889 6.15589V6.15589Z" fill="#F7DECE"/>
<path d="M50.3972 5.25841C50.3972 5.64174 50.0861 5.95285 49.7028 5.95285H1.09169C0.708358 5.95285 0.397247 5.64174 0.397247 5.25841C0.397247 4.87508 0.708358 4.56396 1.09169 4.56396H49.7028C50.0861 4.56396 50.3972 4.87508 50.3972 5.25841Z" fill="#99AAB5"/>
<path d="M47.6195 0.397095C46.8514 0.397095 46.2306 1.01932 46.2306 1.78598C46.2306 1.01932 45.6098 0.397095 44.8417 0.397095C44.0737 0.397095 43.4528 1.01932 43.4528 1.78598V8.73043C43.4528 9.49709 44.0737 10.1193 44.8417 10.1193C45.6098 10.1193 46.2306 9.49709 46.2306 8.73043C46.2306 9.49709 46.8514 10.1193 47.6195 10.1193C48.3875 10.1193 49.0084 9.49709 49.0084 8.73043V1.78598C49.0084 1.01932 48.3875 0.397095 47.6195 0.397095ZM5.95283 0.397095C5.18477 0.397095 4.56394 1.01932 4.56394 1.78598C4.56394 1.01932 3.94311 0.397095 3.17505 0.397095C2.407 0.397095 1.78616 1.01932 1.78616 1.78598V8.73043C1.78616 9.49709 2.407 10.1193 3.17505 10.1193C3.94311 10.1193 4.56394 9.49709 4.56394 8.73043C4.56394 9.49709 5.18477 10.1193 5.95283 10.1193C6.72088 10.1193 7.34172 9.49709 7.34172 8.73043V1.78598C7.34172 1.01932 6.72088 0.397095 5.95283 0.397095Z" fill="#292F33"/>
<path d="M31.1917 17.4612C30.1611 18.0431 29.4097 19.207 29.1195 19.707C28.1958 19.8695 27.5208 20.1237 27.5208 20.1237H23.2722C23.2722 20.1237 22.5972 19.8695 21.6736 19.707C21.3833 19.207 20.6319 18.0445 19.6014 17.4612C19.6014 17.4612 16.6556 18.7626 15.7875 19.5737C16.0792 20.3195 16.4708 21.0278 16.7819 21.5417C17.3375 23.0584 18.8681 25.0515 19.0403 25.3987C19.5806 26.482 20.0694 31.6487 20.0694 31.6487L25.3972 33.7306L30.7236 31.6473C30.7236 31.6473 31.2125 26.4806 31.7528 25.3973C31.9264 25.0501 33.4569 23.057 34.0111 21.5403C34.3222 21.0265 34.7139 20.3195 35.0056 19.5723C34.1375 18.7626 31.1917 17.4612 31.1917 17.4612V17.4612Z" fill="#FA743E"/>
<path d="M38.0305 6.45751C37.5722 6.23945 37.3694 5.86306 37.5069 5.45889L37.511 5.44501C37.6485 5.04084 37.9152 4.96445 38.536 4.97417C38.536 4.97417 40.6485 5.07973 41.9208 5.96306C41.9208 5.96306 41.2874 6.38528 40.9499 6.74084V6.75473C40.693 7.50612 38.3194 6.59501 38.0305 6.45751V6.45751Z" fill="#F7DECE"/>
<path d="M39.0678 5.21678C38.8776 5.17095 38.7609 4.97651 38.8067 4.78623L38.9276 4.2904C38.9734 4.10012 39.1678 3.98345 39.3581 4.02928C39.5484 4.07512 39.6651 4.26956 39.6192 4.45984L39.4984 4.95567C39.4512 5.14595 39.2581 5.26262 39.0678 5.21678ZM38.4498 4.00845C38.2234 3.93206 37.9748 4.05567 37.8984 4.28206L37.5109 5.44456C37.4345 5.67234 37.7442 5.35012 37.972 5.42651C38.1984 5.5029 38.447 5.38067 38.5234 5.15428L38.7234 4.56123C38.7998 4.33345 38.6762 4.08623 38.4498 4.00845Z" fill="#F7DECE"/>
<path d="M39.8194 5.1184C39.6291 5.07256 39.5124 4.87812 39.5582 4.68784L39.6721 4.22395C39.718 4.03367 39.9124 3.91701 40.1027 3.96284C40.293 4.00867 40.4096 4.20312 40.3638 4.3934L40.2499 4.85729C40.2027 5.04756 40.0096 5.16423 39.8194 5.1184Z" fill="#F7DECE"/>
<path d="M40.536 5.15312C40.3457 5.10729 40.2291 4.91284 40.2749 4.72257L40.3694 4.33784C40.4152 4.14757 40.6096 4.0309 40.7999 4.07673C40.9902 4.12257 41.1069 4.31701 41.061 4.50729L40.9666 4.89201C40.9194 5.08229 40.7263 5.19895 40.536 5.15312Z" fill="#F7DECE"/>
<path d="M41.2569 5.18529C41.0666 5.13946 40.9499 4.94502 40.9957 4.75474L41.0513 4.52974C41.0971 4.33946 41.2916 4.22279 41.4818 4.26863C41.6721 4.31446 41.7888 4.50891 41.743 4.69918L41.6874 4.92418C41.6402 5.11446 41.4457 5.23252 41.2569 5.18529Z" fill="#F7DECE"/>
<path d="M12.764 6.45749C13.2223 6.23944 13.4251 5.86305 13.2876 5.45888L13.2834 5.445C13.1459 5.04222 12.8793 4.96444 12.2584 4.97416C12.2584 4.97416 10.1459 5.07972 8.87372 5.96305C8.87372 5.96305 9.50427 6.39916 9.84872 6.75472C9.98483 7.15749 11.7404 6.94499 12.764 6.45749V6.45749Z" fill="#F7DECE"/>
<path d="M11.7265 5.21691C11.9168 5.17107 12.0335 4.97663 11.9876 4.78635L11.8668 4.29052C11.821 4.10024 11.6265 3.98357 11.4362 4.02941C11.246 4.07663 11.1293 4.26968 11.1751 4.45996L11.296 4.9558C11.3432 5.14607 11.5362 5.26274 11.7265 5.21691V5.21691ZM12.3446 4.00857C12.571 3.93218 12.8196 4.0558 12.896 4.28218L13.2835 5.44468C13.3598 5.67246 13.0501 5.35024 12.8223 5.42663C12.596 5.50302 12.3473 5.3808 12.271 5.15441L12.071 4.56135C11.9946 4.33357 12.1182 4.08635 12.3446 4.00857V4.00857Z" fill="#F7DECE"/>
<path d="M10.9751 5.1184C11.1654 5.07256 11.282 4.87812 11.2362 4.68784L11.1223 4.22395C11.0765 4.03367 10.882 3.91701 10.6918 3.96284C10.5029 4.01006 10.3848 4.20312 10.432 4.3934L10.5459 4.85729C10.5918 5.04756 10.7848 5.16423 10.9751 5.1184Z" fill="#F7DECE"/>
<path d="M10.2584 5.15312C10.4487 5.10729 10.5654 4.91284 10.5195 4.72257L10.4251 4.33784C10.3793 4.14757 10.1862 4.0309 9.99592 4.07673C9.80565 4.12257 9.68898 4.31701 9.73481 4.50729L9.82926 4.89201C9.87509 5.08229 10.0681 5.19895 10.2584 5.15312Z" fill="#F7DECE"/>
<path d="M9.53759 5.18522C9.72787 5.13938 9.84453 4.94494 9.7987 4.75466L9.74453 4.52966C9.69731 4.34077 9.50426 4.22272 9.31398 4.26855C9.1237 4.31577 9.00703 4.50883 9.05287 4.69911L9.10842 4.92411C9.15426 5.11438 9.3487 5.23244 9.53759 5.18522V5.18522Z" fill="#F7DECE"/>
<path d="M30.7306 34.4251L25.3972 32.3418L20.0639 34.4251C20.0639 34.4251 18.925 37.0876 18.7306 41.6307H22.9806C24.2028 40.271 24.6472 36.6251 24.6472 36.6251H26.1472C26.1472 36.6251 26.5917 40.271 27.8139 41.6307H32.0639C31.8694 37.0876 30.7306 34.4251 30.7306 34.4251V34.4251Z" fill="#DD551F"/>
<path d="M20.0306 31.6473H30.7653V34.4251H20.0306V31.6473Z" fill="#C1694F"/>
<path d="M26.7862 31.507H27.6889V34.575H26.7862V31.507Z" fill="#14171A"/>
<path d="M26.0917 33.2099C26.2198 33.2099 26.3237 33.106 26.3237 32.9779C26.3237 32.8498 26.2198 32.746 26.0917 32.746C25.9636 32.746 25.8598 32.8498 25.8598 32.9779C25.8598 33.106 25.9636 33.2099 26.0917 33.2099Z" fill="#14171A"/>
<path d="M25.4264 32.9779C25.4264 33.1057 25.3223 33.2099 25.1945 33.2099C25.0667 33.2099 24.9626 33.1057 24.9626 32.9779C24.9626 32.8501 25.0667 32.746 25.1945 32.746C25.3223 32.7474 25.4264 32.8501 25.4264 32.9779Z" fill="#14171A"/>
<path d="M24.2972 33.2099C24.4253 33.2099 24.5292 33.106 24.5292 32.9779C24.5292 32.8498 24.4253 32.746 24.2972 32.746C24.1691 32.746 24.0653 32.8498 24.0653 32.9779C24.0653 33.106 24.1691 33.2099 24.2972 33.2099Z" fill="#14171A"/>
<path d="M23.4 33.2099C23.5281 33.2099 23.6319 33.106 23.6319 32.9779C23.6319 32.8498 23.5281 32.746 23.4 32.746C23.2719 32.746 23.1681 32.8498 23.1681 32.9779C23.1681 33.106 23.2719 33.2099 23.4 33.2099Z" fill="#14171A"/>
<path d="M22.5042 33.2099C22.6323 33.2099 22.7361 33.106 22.7361 32.9779C22.7361 32.8498 22.6323 32.746 22.5042 32.746C22.3761 32.746 22.2722 32.8498 22.2722 32.9779C22.2722 33.106 22.3761 33.2099 22.5042 33.2099Z" fill="#14171A"/>
<path d="M21.607 33.2099C21.7351 33.2099 21.8389 33.106 21.8389 32.9779C21.8389 32.8498 21.7351 32.746 21.607 32.746C21.4789 32.746 21.375 32.8498 21.375 32.9779C21.375 33.106 21.4789 33.2099 21.607 33.2099Z" fill="#14171A"/>
<path d="M20.7098 33.2099C20.8379 33.2099 20.9417 33.106 20.9417 32.9779C20.9417 32.8498 20.8379 32.746 20.7098 32.746C20.5817 32.746 20.4778 32.8498 20.4778 32.9779C20.4778 33.106 20.5817 33.2099 20.7098 33.2099Z" fill="#14171A"/>
<path d="M24.2972 33.2099C24.4253 33.2099 24.5292 33.106 24.5292 32.9779C24.5292 32.8498 24.4253 32.746 24.2972 32.746C24.1691 32.746 24.0653 32.8498 24.0653 32.9779C24.0653 33.106 24.1691 33.2099 24.2972 33.2099Z" fill="#14171A"/>
<path d="M23.3875 33.1836C23.5011 33.1836 23.5931 33.0915 23.5931 32.978C23.5931 32.8645 23.5011 32.7725 23.3875 32.7725C23.274 32.7725 23.182 32.8645 23.182 32.978C23.182 33.0915 23.274 33.1836 23.3875 33.1836Z" fill="#657786"/>
<path d="M23.0611 32.7725H23.3875V33.185H23.0611V32.7725Z" fill="#657786"/>
<path d="M23.632 34.9054H22.5792V31.1595H23.632V31.6457H23.0639V34.4193H23.632V34.9054Z" fill="#657786"/>
<path d="M27.6069 5.73063C26.4639 5.36119 23.7764 5.46119 23.1042 6.33619C21.3569 6.36952 19.3069 7.94869 19.0375 10.032C18.7708 12.0945 19.3639 13.0515 19.575 14.6028C19.8139 16.3598 20.8014 16.9209 21.5917 17.157C22.7278 18.6584 23.9361 18.5931 25.9625 18.5931C29.9222 18.5931 31.8083 15.9431 31.975 11.4431C32.0764 8.72091 30.4792 6.6598 27.6069 5.73063V5.73063Z" fill="#292F33"/>
<path d="M23.7 17.4612V20.8556C23.7 21.7931 24.4598 22.5528 25.3973 22.5528C26.3348 22.5528 27.0945 21.7931 27.0945 20.8556V17.4612H23.7V17.4612Z" fill="#F7DECE"/>
<path d="M29.8708 11.6349C29.4875 11.1044 28.9972 10.6766 27.9222 10.5266C28.325 10.7113 28.7125 11.3502 28.7625 11.703C28.8125 12.0558 28.8639 12.3419 28.5444 11.9891C27.2653 10.5752 25.8722 11.1322 24.4931 10.2683C23.5292 9.66549 23.2361 8.99744 23.2361 8.99744C23.2361 8.99744 23.1181 9.88771 21.6569 10.7947C21.2333 11.0572 20.7278 11.6433 20.4472 12.5085C20.2458 13.1308 20.3083 13.6849 20.3083 14.6322C20.3083 17.3974 22.5875 19.7238 25.4 19.7238C28.2125 19.7238 30.4917 17.378 30.4917 14.6322C30.4889 12.9127 30.3083 12.2405 29.8708 11.6349V11.6349Z" fill="#F7DECE"/>
<path d="M27.6597 17.4611H23.1347C23.1347 17.4611 23.7 18.5916 25.3972 18.5916C27.0945 18.5916 27.6597 17.4611 27.6597 17.4611V17.4611ZM25.9625 16.0458H24.8306C24.6736 16.0458 24.5472 15.9194 24.5472 15.7625C24.5472 15.6055 24.6736 15.4791 24.8306 15.4791H25.9625C26.1195 15.4791 26.2458 15.6055 26.2458 15.7625C26.2458 15.9194 26.1195 16.0458 25.9625 16.0458Z" fill="#C1694F"/>
<path d="M23.1348 14.0669C22.8223 14.0669 22.5695 13.8141 22.5695 13.5016V12.9349C22.5695 12.6224 22.8223 12.3696 23.1348 12.3696C23.4473 12.3696 23.7 12.6224 23.7 12.9349V13.5002C23.7 13.8141 23.4473 14.0669 23.1348 14.0669ZM27.6598 14.0669C27.3473 14.0669 27.0945 13.8141 27.0945 13.5016V12.9349C27.0945 12.6224 27.3473 12.3696 27.6598 12.3696C27.9723 12.3696 28.225 12.6224 28.225 12.9349V13.5002C28.225 13.8141 27.9723 14.0669 27.6598 14.0669Z" fill="#662113"/>
</svg>
