<svg width="51" height="51" viewBox="0 0 51 51" fill="none" xmlns="http://www.w3.org/2000/svg">
<path d="M25.3973 50.3972C39.2044 50.3972 50.3973 39.2044 50.3973 25.3972C50.3973 11.5901 39.2044 0.397217 25.3973 0.397217C11.5902 0.397217 0.397278 11.5901 0.397278 25.3972C0.397278 39.2044 11.5902 50.3972 25.3973 50.3972Z" fill="#F5F8FA"/>
<path d="M25.3972 15.675C24.6306 15.675 24.0083 15.0528 24.0083 14.2861V4.56392C24.0083 3.79725 24.6306 3.17503 25.3972 3.17503C26.1639 3.17503 26.7861 3.79725 26.7861 4.56392V14.2861C26.7861 15.0528 26.1639 15.675 25.3972 15.675ZM16.2542 21.925C16.1153 21.925 15.9736 21.9042 15.8347 21.8598L4.66668 18.3292C3.93474 18.0973 3.52918 17.3181 3.76112 16.5861C3.99168 15.8542 4.77501 15.45 5.50418 15.6806L16.6736 19.2111C17.4056 19.4431 17.8111 20.2236 17.5792 20.9542C17.3903 21.5459 16.8431 21.925 16.2542 21.925V21.925ZM35.1778 21.5209C34.575 21.5209 34.0208 21.125 33.8445 20.5181C33.6306 19.7806 34.0542 19.0111 34.7917 18.7973L44.1667 16.0778C44.9042 15.8653 45.6736 16.2903 45.8861 17.025C46.1 17.7625 45.6764 18.532 44.9389 18.7459L35.5639 21.4653C35.4361 21.5028 35.3056 21.5209 35.1778 21.5209ZM37.957 42.2959C37.532 42.2959 37.1153 42.1014 36.8417 41.7362L29.2597 31.5514C28.8014 30.9375 28.9292 30.0667 29.5445 29.6084C30.1583 29.1487 31.0292 29.2778 31.4875 29.8931L39.0695 40.0778C39.5278 40.6917 39.4 41.5626 38.7847 42.0209C38.5361 42.207 38.2445 42.2959 37.957 42.2959ZM12.5486 42.1806C12.275 42.1806 12 42.1001 11.757 41.932C11.1264 41.4931 10.9722 40.6292 11.4097 39.9987L18.5278 29.7556C18.9653 29.125 19.8306 28.9695 20.4611 29.407C21.0917 29.8445 21.2458 30.7112 20.8083 31.3403L13.6903 41.5834C13.4208 41.9737 12.9875 42.1806 12.5486 42.1806ZM5.25835 37.9834C4.64724 37.9834 4.08612 37.5764 3.91807 36.9584L0.87918 25.7612C0.677791 25.0209 1.11529 24.2584 1.85696 24.057C2.60001 23.8612 3.36112 24.2945 3.56112 25.0348L6.60001 36.232C6.8014 36.9723 6.3639 37.7348 5.62224 37.9348C5.50001 37.9695 5.37779 37.9834 5.25835 37.9834V37.9834ZM30.9528 47.6195H18.4528C17.6861 47.6195 17.0639 46.9987 17.0639 46.2306C17.0639 45.4626 17.6861 44.8417 18.4528 44.8417H30.9528C31.7208 44.8417 32.3417 45.4626 32.3417 46.2306C32.3417 46.9987 31.7208 47.6195 30.9528 47.6195ZM45.0167 38.0709C44.907 38.0709 44.7945 38.0584 44.6833 38.0306C43.9389 37.8473 43.4833 37.0945 43.6681 36.35L46.6195 24.3709C46.8042 23.6264 47.5625 23.1737 48.3 23.3542C49.0445 23.5375 49.5 24.2903 49.3153 25.0362L46.3639 37.0153C46.207 37.6473 45.6403 38.0709 45.0167 38.0709V38.0709ZM42.4972 11.075C42.2611 11.075 42.0222 11.0153 41.8028 10.8889L31.3 4.81253C30.6361 4.42781 30.4083 3.5792 30.7945 2.91392C31.1764 2.25003 32.025 2.02086 32.6917 2.40697L43.1945 8.48337C43.8583 8.86809 44.0861 9.7167 43.7 10.382C43.4431 10.8264 42.9764 11.075 42.4972 11.075ZM8.03751 11.075C7.60418 11.075 7.17918 10.8736 6.90835 10.4959C6.46112 9.87087 6.60279 9.0042 7.2264 8.55698L15.8208 2.39308C16.4445 1.94586 17.3125 2.08892 17.7597 2.71114C18.207 3.33475 18.0639 4.20281 17.4417 4.65003L8.84585 10.8139C8.60001 10.9889 8.31807 11.075 8.03751 11.075V11.075Z" fill="#CCD6DD"/>
<path d="M35.8042 19.1694L25.7931 12.1097C25.3098 11.7694 24.6626 11.7722 24.1806 12.1181L14.2264 19.2944C13.7501 19.6389 13.5403 20.2444 13.7056 20.8097L17.1778 32.7306C17.3501 33.3222 17.8931 33.7306 18.5112 33.7306H30.9528C31.5501 33.7306 32.0778 33.35 32.2695 32.7847L36.3209 20.7472C36.5167 20.1653 36.3056 19.5236 35.8042 19.1694V19.1694ZM2.19172 27.5389C2.27228 27.5389 2.35422 27.532 2.43478 27.5167C2.84311 27.4445 3.19867 27.1931 3.40283 26.8306L8.09033 18.4972C8.16117 18.3708 8.21117 18.2361 8.24033 18.0931L10.0917 9.00833C10.1751 8.6 10.0695 8.175 9.80561 7.85278C9.54172 7.52917 9.14728 7.34167 8.73061 7.34167H8.13617C3.37644 11.8931 0.397278 18.2917 0.397278 25.3972C0.397278 25.7667 0.436167 26.1264 0.452833 26.4917L1.28894 27.2056C1.54172 27.4222 1.86256 27.5389 2.19172 27.5389V27.5389ZM15.1431 4.55694C15.2903 4.86111 15.5778 5.075 15.9112 5.12916L24.7653 6.57639C24.8209 6.58472 24.8778 6.59028 24.9334 6.59028C24.9889 6.59028 25.0459 6.58611 25.1028 6.57639L33.5528 5.1875C33.8306 5.14166 34.0806 4.98472 34.2403 4.75139C34.4014 4.51805 34.4598 4.23055 34.4042 3.95277L33.9987 1.94861C31.3139 0.962495 28.4251 0.397217 25.3973 0.397217C22.0292 0.397217 18.8223 1.07222 15.8903 2.28055L15.1667 3.6C15.0042 3.89583 14.9959 4.25277 15.1431 4.55694V4.55694ZM43.6389 8.34028L41.5501 8.20833C41.2334 8.19028 40.9181 8.31389 40.7042 8.55417C40.4931 8.79444 40.4014 9.1125 40.4612 9.42917L42.082 18.0375C42.1056 18.1569 42.1487 18.2431 42.2112 18.3486C44.2834 21.8264 46.5889 25.7111 46.907 26.3792C46.9403 26.4958 46.9931 26.4889 47.0653 26.5889C47.2598 26.8597 47.582 26.7861 47.9153 26.7861H47.9251C48.2001 26.7861 48.3737 26.9167 50.3806 25.7403C50.382 25.625 50.3973 25.5125 50.3973 25.3972C50.3973 18.7958 47.8195 12.8083 43.6389 8.34028V8.34028ZM20.5931 46.7528C20.6084 46.4764 20.5126 46.2042 20.3278 45.9972L14.0778 39.0528C13.9945 38.9611 13.8959 38.8834 13.7848 38.8264C5.61117 34.5639 5.45978 34.5139 5.35978 34.4792C5.25144 34.4445 5.13617 34.425 5.02367 34.425C4.27783 34.425 4.05839 34.5153 3.37783 37.2361C6.48339 42.9986 11.7848 47.3972 18.1612 49.3236L20.2445 47.4722C20.4514 47.2889 20.5764 47.0292 20.5931 46.7528V46.7528ZM45.3612 34.8542C45.0987 34.7431 44.7987 34.7458 44.5389 34.8611L36.0903 38.5653C35.9431 38.6292 35.8126 38.7264 35.7098 38.85L29.807 45.9097C29.6278 46.1236 29.5431 46.3986 29.5681 46.6764C29.5959 46.9542 29.7306 47.2097 29.9459 47.3847C30.8945 48.1611 31.6973 48.8153 32.4001 49.3847C38.5626 47.5875 43.7251 43.4847 46.9195 38.0708L45.9306 35.4472C45.8306 35.1792 45.6237 34.9653 45.3612 34.8542V34.8542Z" fill="#31373D"/>
</svg>
