<svg width="16" height="16" viewBox="0 0 16 16" fill="none" xmlns="http://www.w3.org/2000/svg">
<path d="M1.45772 10.9066V15.191C1.46006 15.4064 1.54725 15.6121 1.70036 15.7636C1.85347 15.915 2.06014 16 2.27549 15.9999H7.27105V10.9066H1.45772ZM8.72883 15.9999H13.7244C13.9397 16 14.1464 15.915 14.2995 15.7636C14.4526 15.6121 14.5398 15.4064 14.5422 15.191V10.9066H8.72883V15.9999ZM15.1999 3.63549H13.5644C13.7319 3.29524 13.8201 2.92141 13.8222 2.54216C13.8198 1.86711 13.55 1.2205 13.0718 0.743997C12.5937 0.267491 11.9461 -6.51329e-05 11.2711 -6.10351e-05C10.5658 0.0333827 9.88448 0.265633 9.30566 0.669864C8.72683 1.0741 8.27417 1.63382 7.99994 2.28438C7.72571 1.63382 7.27304 1.0741 6.69422 0.669864C6.1154 0.265633 5.43404 0.0333827 4.72883 -6.10351e-05C4.05377 -6.51329e-05 3.40623 0.267491 2.92806 0.743997C2.44988 1.2205 2.18007 1.86711 2.17772 2.54216C2.17983 2.92141 2.26796 3.29524 2.43549 3.63549H0.799939C0.355495 3.63549 -6.10352e-05 4.15994 -6.10352e-05 4.79994V8.29327C-6.10352e-05 8.93327 0.355495 9.45772 0.799939 9.45772H7.27105V3.63549H8.72883V9.45772H15.1999C15.6444 9.45772 15.9999 8.93327 15.9999 8.29327V4.79994C15.9999 4.15994 15.6444 3.63549 15.1999 3.63549ZM4.72883 3.63549C4.57756 3.64918 4.42511 3.63119 4.28118 3.58269C4.13725 3.53418 4.00501 3.45622 3.89288 3.35378C3.78075 3.25133 3.6912 3.12665 3.62993 2.98767C3.56866 2.8487 3.53701 2.69849 3.53701 2.54661C3.53701 2.39472 3.56866 2.24451 3.62993 2.10554C3.6912 1.96656 3.78075 1.84188 3.89288 1.73943C4.00501 1.63699 4.13725 1.55903 4.28118 1.51053C4.42511 1.46202 4.57756 1.44404 4.72883 1.45772C5.97327 1.45772 6.67549 2.73772 7.02216 3.63549H4.72883ZM11.2711 3.63549H8.97772C9.32438 2.74661 10.0266 1.45772 11.2711 1.45772C11.4223 1.44404 11.5748 1.46202 11.7187 1.51053C11.8626 1.55903 11.9949 1.63699 12.107 1.73943C12.2191 1.84188 12.3087 1.96656 12.3699 2.10554C12.4312 2.24451 12.4629 2.39472 12.4629 2.54661C12.4629 2.69849 12.4312 2.8487 12.3699 2.98767C12.3087 3.12665 12.2191 3.25133 12.107 3.35378C11.9949 3.45622 11.8626 3.53418 11.7187 3.58269C11.5748 3.63119 11.4223 3.64918 11.2711 3.63549V3.63549Z" fill="#FF9D00"/>
</svg>
