<svg width="36" height="36" viewBox="0 0 36 36" fill="none" xmlns="http://www.w3.org/2000/svg">
<path d="M15.898 34.875H14.533C14.533 34.875 13.263 31.527 13.459 29.139L16.26 29.688C16.786 31.259 15.898 34.875 15.898 34.875V34.875ZM20.042 34.875H21.407C21.407 34.875 22.677 31.527 22.481 29.139L19.68 29.688C19.154 31.259 20.042 34.875 20.042 34.875V34.875Z" fill="#F7DECE"/>
<path d="M13.792 35.149C13.894 34.906 14.11 34.455 14.133 34.194C14.156 33.933 14.167 33.84 14.373 33.768C14.72 33.647 15.809 33.681 15.996 33.752C16.182 33.823 16.185 34.015 16.212 34.176C16.239 34.337 16.326 34.6 16.439 34.816C16.553 35.032 16.848 35.513 16.7 35.85C16.638 35.99 16.295 35.988 15.193 35.988C14.091 35.988 13.776 35.962 13.701 35.87C13.626 35.778 13.69 35.393 13.792 35.149ZM22.148 35.149C22.046 34.906 21.83 34.455 21.807 34.194C21.784 33.933 21.773 33.84 21.567 33.768C21.22 33.647 20.131 33.681 19.944 33.752C19.757 33.823 19.755 34.015 19.728 34.176C19.701 34.337 19.614 34.6 19.501 34.816C19.388 35.032 19.092 35.513 19.24 35.85C19.302 35.99 19.645 35.988 20.747 35.988C21.849 35.988 22.164 35.962 22.239 35.87C22.314 35.778 22.25 35.393 22.148 35.149Z" fill="#FA743E"/>
<path d="M8.646 4.146C8.657 4.273 9.517 5.681 9.969 6.781C10.421 7.881 10.679 8.979 10.917 9.229C11.393 9.728 13.009 11.108 14.034 12.572C15.059 14.036 14.758 15.075 14.094 15.494C13.214 16.049 12.291 15.698 11.657 14.706C11.206 14 9.706 11.497 8.918 10.105C8.612 9.564 8.122 8.593 7.7 7.531C7.303 6.531 7.256 5.363 7.196 5.219C7.022 4.794 6.076 4.242 6.042 3.812C6.042 3.812 8.609 3.717 8.646 4.146V4.146ZM27.354 4.146C27.343 4.273 26.483 5.681 26.031 6.781C25.579 7.881 25.321 8.979 25.083 9.229C24.607 9.728 22.991 11.108 21.966 12.572C20.941 14.036 21.242 15.075 21.906 15.494C22.786 16.049 23.709 15.698 24.343 14.706C24.794 14 26.294 11.497 27.082 10.105C27.386 9.565 27.877 8.594 28.299 7.532C28.696 6.532 28.743 5.364 28.803 5.22C28.978 4.795 29.924 4.243 29.958 3.814C29.958 3.812 27.391 3.717 27.354 4.146V4.146Z" fill="#F7DECE"/>
<path d="M36 3.5C36 3.776 35.776 4 35.5 4H0.5C0.224 4 0 3.776 0 3.5C0 3.224 0.224 3 0.5 3H35.5C35.776 3 36 3.224 36 3.5Z" fill="#99AAB5"/>
<path d="M34 0C33.447 0 33 0.448 33 1C33 0.448 32.553 0 32 0C31.447 0 31 0.448 31 1V6C31 6.552 31.447 7 32 7C32.553 7 33 6.552 33 6C33 6.552 33.447 7 34 7C34.553 7 35 6.552 35 6V1C35 0.448 34.553 0 34 0ZM4 0C3.447 0 3 0.448 3 1C3 0.448 2.553 0 2 0C1.447 0 1 0.448 1 1V6C1 6.552 1.447 7 2 7C2.553 7 3 6.552 3 6C3 6.552 3.447 7 4 7C4.553 7 5 6.552 5 6V1C5 0.448 4.553 0 4 0Z" fill="#292F33"/>
<path d="M22.172 12.286C21.43 12.705 20.889 13.543 20.68 13.903C20.015 14.02 19.529 14.203 19.529 14.203H16.47C16.47 14.203 15.984 14.02 15.319 13.903C15.11 13.543 14.569 12.706 13.827 12.286C13.827 12.286 11.706 13.223 11.081 13.807C11.291 14.344 11.573 14.854 11.797 15.224C12.197 16.316 13.299 17.751 13.423 18.001C13.812 18.781 14.164 22.501 14.164 22.501L18 24L21.835 22.5C21.835 22.5 22.187 18.78 22.576 18C22.701 17.75 23.803 16.315 24.202 15.223C24.426 14.853 24.708 14.344 24.918 13.806C24.293 13.223 22.172 12.286 22.172 12.286V12.286Z" fill="#FA743E"/>
<path d="M27.096 4.363C26.766 4.206 26.62 3.935 26.719 3.644L26.722 3.634C26.821 3.343 27.013 3.288 27.46 3.295C27.46 3.295 28.981 3.371 29.897 4.007C29.897 4.007 29.441 4.311 29.198 4.567V4.577C29.013 5.118 27.304 4.462 27.096 4.363V4.363Z" fill="#F7DECE"/>
<path d="M27.843 3.47C27.706 3.437 27.622 3.297 27.655 3.16L27.742 2.803C27.775 2.666 27.915 2.582 28.052 2.615C28.189 2.648 28.273 2.788 28.24 2.925L28.153 3.282C28.119 3.419 27.98 3.503 27.843 3.47ZM27.398 2.6C27.235 2.545 27.056 2.634 27.001 2.797L26.722 3.634C26.667 3.798 26.89 3.566 27.054 3.621C27.217 3.676 27.396 3.588 27.451 3.425L27.595 2.998C27.65 2.834 27.561 2.656 27.398 2.6Z" fill="#F7DECE"/>
<path d="M28.384 3.399C28.247 3.366 28.163 3.226 28.196 3.089L28.278 2.755C28.311 2.618 28.451 2.534 28.588 2.567C28.725 2.6 28.809 2.74 28.776 2.877L28.694 3.211C28.66 3.348 28.521 3.432 28.384 3.399Z" fill="#F7DECE"/>
<path d="M28.9 3.424C28.763 3.391 28.679 3.251 28.712 3.114L28.78 2.837C28.813 2.7 28.953 2.616 29.09 2.649C29.227 2.682 29.311 2.822 29.278 2.959L29.21 3.236C29.176 3.373 29.037 3.457 28.9 3.424Z" fill="#F7DECE"/>
<path d="M29.419 3.447C29.282 3.414 29.198 3.274 29.231 3.137L29.271 2.975C29.304 2.838 29.444 2.754 29.581 2.787C29.718 2.82 29.802 2.96 29.769 3.097L29.729 3.259C29.695 3.396 29.555 3.481 29.419 3.447Z" fill="#F7DECE"/>
<path d="M8.904 4.363C9.234 4.206 9.38 3.935 9.281 3.644L9.278 3.634C9.179 3.344 8.987 3.288 8.54 3.295C8.54 3.295 7.019 3.371 6.103 4.007C6.103 4.007 6.557 4.321 6.805 4.577C6.903 4.867 8.167 4.714 8.904 4.363V4.363Z" fill="#F7DECE"/>
<path d="M8.157 3.47C8.294 3.437 8.378 3.297 8.345 3.16L8.258 2.803C8.225 2.666 8.085 2.582 7.948 2.615C7.811 2.649 7.727 2.788 7.76 2.925L7.847 3.282C7.881 3.419 8.02 3.503 8.157 3.47V3.47ZM8.602 2.6C8.765 2.545 8.944 2.634 8.999 2.797L9.278 3.634C9.333 3.798 9.11 3.566 8.946 3.621C8.783 3.676 8.604 3.588 8.549 3.425L8.405 2.998C8.35 2.834 8.439 2.656 8.602 2.6V2.6Z" fill="#F7DECE"/>
<path d="M7.616 3.399C7.753 3.366 7.837 3.226 7.804 3.089L7.722 2.755C7.689 2.618 7.549 2.534 7.412 2.567C7.276 2.601 7.191 2.74 7.225 2.877L7.307 3.211C7.34 3.348 7.479 3.432 7.616 3.399Z" fill="#F7DECE"/>
<path d="M7.1 3.424C7.237 3.391 7.321 3.251 7.288 3.114L7.22 2.837C7.187 2.7 7.048 2.616 6.911 2.649C6.774 2.682 6.69 2.822 6.723 2.959L6.791 3.236C6.824 3.373 6.963 3.457 7.1 3.424Z" fill="#F7DECE"/>
<path d="M6.581 3.447C6.718 3.414 6.802 3.274 6.769 3.137L6.73 2.975C6.696 2.839 6.557 2.754 6.42 2.787C6.283 2.821 6.199 2.96 6.232 3.097L6.272 3.259C6.305 3.396 6.445 3.481 6.581 3.447V3.447Z" fill="#F7DECE"/>
<path d="M21.84 24.5L18 23L14.16 24.5C14.16 24.5 13.34 26.417 13.2 29.688H16.26C17.14 28.709 17.46 26.084 17.46 26.084H18.54C18.54 26.084 18.86 28.709 19.74 29.688H22.8C22.66 26.417 21.84 24.5 21.84 24.5V24.5Z" fill="#DD551F"/>
<path d="M14.136 22.5H21.865V24.5H14.136V22.5Z" fill="#C1694F"/>
<path d="M19 22.399H19.65V24.608H19V22.399Z" fill="#14171A"/>
<path d="M18.5 23.625C18.5922 23.625 18.667 23.5502 18.667 23.458C18.667 23.3658 18.5922 23.291 18.5 23.291C18.4078 23.291 18.333 23.3658 18.333 23.458C18.333 23.5502 18.4078 23.625 18.5 23.625Z" fill="#14171A"/>
<path d="M18.021 23.458C18.021 23.55 17.946 23.625 17.854 23.625C17.762 23.625 17.687 23.55 17.687 23.458C17.687 23.366 17.762 23.291 17.854 23.291C17.946 23.292 18.021 23.366 18.021 23.458Z" fill="#14171A"/>
<path d="M17.208 23.625C17.3002 23.625 17.375 23.5502 17.375 23.458C17.375 23.3658 17.3002 23.291 17.208 23.291C17.1158 23.291 17.041 23.3658 17.041 23.458C17.041 23.5502 17.1158 23.625 17.208 23.625Z" fill="#14171A"/>
<path d="M16.562 23.625C16.6542 23.625 16.729 23.5502 16.729 23.458C16.729 23.3658 16.6542 23.291 16.562 23.291C16.4698 23.291 16.395 23.3658 16.395 23.458C16.395 23.5502 16.4698 23.625 16.562 23.625Z" fill="#14171A"/>
<path d="M15.917 23.625C16.0092 23.625 16.084 23.5502 16.084 23.458C16.084 23.3658 16.0092 23.291 15.917 23.291C15.8248 23.291 15.75 23.3658 15.75 23.458C15.75 23.5502 15.8248 23.625 15.917 23.625Z" fill="#14171A"/>
<path d="M15.271 23.625C15.3632 23.625 15.438 23.5502 15.438 23.458C15.438 23.3658 15.3632 23.291 15.271 23.291C15.1788 23.291 15.104 23.3658 15.104 23.458C15.104 23.5502 15.1788 23.625 15.271 23.625Z" fill="#14171A"/>
<path d="M14.625 23.625C14.7172 23.625 14.792 23.5502 14.792 23.458C14.792 23.3658 14.7172 23.291 14.625 23.291C14.5328 23.291 14.458 23.3658 14.458 23.458C14.458 23.5502 14.5328 23.625 14.625 23.625Z" fill="#14171A"/>
<path d="M17.208 23.625C17.3002 23.625 17.375 23.5502 17.375 23.458C17.375 23.3658 17.3002 23.291 17.208 23.291C17.1158 23.291 17.041 23.3658 17.041 23.458C17.041 23.5502 17.1158 23.625 17.208 23.625Z" fill="#14171A"/>
<path d="M16.553 23.606C16.6347 23.606 16.701 23.5397 16.701 23.458C16.701 23.3763 16.6347 23.31 16.553 23.31C16.4713 23.31 16.405 23.3763 16.405 23.458C16.405 23.5397 16.4713 23.606 16.553 23.606Z" fill="#657786"/>
<path d="M16.318 23.31H16.553V23.607H16.318V23.31Z" fill="#657786"/>
<path d="M16.729 24.846H15.971V22.149H16.729V22.499H16.32V24.496H16.729V24.846Z" fill="#657786"/>
<path d="M19.591 3.84C18.768 3.574 16.833 3.646 16.349 4.276C15.091 4.3 13.615 5.437 13.421 6.937C13.229 8.422 13.656 9.111 13.808 10.228C13.98 11.493 14.691 11.897 15.26 12.067C16.078 13.148 16.948 13.101 18.407 13.101C21.258 13.101 22.616 11.193 22.736 7.953C22.809 5.993 21.659 4.509 19.591 3.84V3.84Z" fill="#292F33"/>
<path d="M16.778 12.286V14.73C16.778 15.405 17.325 15.952 18 15.952C18.675 15.952 19.222 15.405 19.222 14.73V12.286H16.778V12.286Z" fill="#F7DECE"/>
<path d="M21.221 8.091C20.945 7.709 20.592 7.401 19.818 7.293C20.108 7.426 20.387 7.886 20.423 8.14C20.459 8.394 20.496 8.6 20.266 8.346C19.345 7.328 18.342 7.729 17.349 7.107C16.655 6.673 16.444 6.192 16.444 6.192C16.444 6.192 16.359 6.833 15.307 7.486C15.002 7.675 14.638 8.097 14.436 8.72C14.291 9.168 14.336 9.567 14.336 10.249C14.336 12.24 15.977 13.915 18.002 13.915C20.027 13.915 21.668 12.226 21.668 10.249C21.666 9.011 21.536 8.527 21.221 8.091V8.091Z" fill="#F7DECE"/>
<path d="M19.629 12.286H16.371C16.371 12.286 16.778 13.1 18 13.1C19.222 13.1 19.629 12.286 19.629 12.286V12.286ZM18.407 11.267H17.592C17.479 11.267 17.388 11.176 17.388 11.063C17.388 10.95 17.479 10.859 17.592 10.859H18.407C18.52 10.859 18.611 10.95 18.611 11.063C18.611 11.176 18.52 11.267 18.407 11.267Z" fill="#C1694F"/>
<path d="M16.371 9.842C16.146 9.842 15.964 9.66 15.964 9.435V9.027C15.964 8.802 16.146 8.62 16.371 8.62C16.596 8.62 16.778 8.802 16.778 9.027V9.434C16.778 9.66 16.596 9.842 16.371 9.842ZM19.629 9.842C19.404 9.842 19.222 9.66 19.222 9.435V9.027C19.222 8.802 19.404 8.62 19.629 8.62C19.854 8.62 20.036 8.802 20.036 9.027V9.434C20.036 9.66 19.854 9.842 19.629 9.842Z" fill="#662113"/>
</svg>
