<svg width="36" height="24" viewBox="0 0 36 24" fill="none" xmlns="http://www.w3.org/2000/svg">
<path d="M36 13C36 13.553 35.553 14 35 14H34C33.447 14 33 13.553 33 13V7C33 6.447 33.447 6 34 6H35C35.553 6 36 6.447 36 7V13Z" fill="#292F33"/>
<path d="M5 20H31C32 20 34 19 34 16C34 14 34 8 33 7C32 6 33 0 29 0H15C12 0 9 7 9 7L5 8C5 8 1 9 1 12V15C1 15 0 15.338 0 16.957C0 18.576 1 19 1 19L5 20Z" fill="#3B88C3"/>
<path d="M9 24C11.2091 24 13 22.2091 13 20C13 17.7909 11.2091 16 9 16C6.79086 16 5 17.7909 5 20C5 22.2091 6.79086 24 9 24Z" fill="#292F33"/>
<path d="M9 22C10.1046 22 11 21.1046 11 20C11 18.8954 10.1046 18 9 18C7.89543 18 7 18.8954 7 20C7 21.1046 7.89543 22 9 22Z" fill="#CCD6DD"/>
<path d="M27 24C29.2091 24 31 22.2091 31 20C31 17.7909 29.2091 16 27 16C24.7909 16 23 17.7909 23 20C23 22.2091 24.7909 24 27 24Z" fill="#292F33"/>
<path d="M27 22C28.1046 22 29 21.1046 29 20C29 18.8954 28.1046 18 27 18C25.8954 18 25 18.8954 25 20C25 21.1046 25.8954 22 27 22Z" fill="#CCD6DD"/>
<path d="M24 6C24 6.552 24.447 7 25 7H29C29.553 7 30 6.552 30 6V3C30 2.448 29.553 2 29 2H25C24.447 2 24 2.448 24 3V6ZM13 6C13 7 13.448 7 14 7H21C21.553 7 22 6.552 22 6V3C22 2.448 21.553 2 21 2H16C15 2 13 5 13 6Z" fill="#BBDDF5"/>
<path d="M32 12.5C32 13.328 31.328 14 30.5 14H8.5C7.671 14 7 13.328 7 12.5C7 11.671 7.671 11 8.5 11H30.5C31.328 11 32 11.671 32 12.5Z" fill="#55ACEE"/>
</svg>
