<svg width="36" height="26" viewBox="0 0 36 26" fill="none" xmlns="http://www.w3.org/2000/svg">
<path d="M2.055 7.805L2.051 7.803C2.051 7.803 0 20.22 0 22.01C0 23.834 1.343 25.312 3 25.312C3.68 25.312 4.3 25.054 4.803 24.634L14.969 15.696L2.055 7.805ZM33.745 7.805L33.749 7.803C33.749 7.803 35.8 20.22 35.8 22.01C35.8 23.834 34.457 25.312 32.8 25.312C32.12 25.312 31.5 25.054 30.997 24.634L20.831 15.696L33.745 7.805Z" fill="#31373D"/>
<path d="M25.9 17C30.5944 17 34.4 13.1944 34.4 8.5C34.4 3.80558 30.5944 0 25.9 0C21.2056 0 17.4 3.80558 17.4 8.5C17.4 13.1944 21.2056 17 25.9 17Z" fill="#14171A"/>
<path d="M9.9 17C14.5944 17 18.4 13.1944 18.4 8.5C18.4 3.80558 14.5944 0 9.9 0C5.20558 0 1.4 3.80558 1.4 8.5C1.4 13.1944 5.20558 17 9.9 17Z" fill="#14171A"/>
<path d="M9.9 0H25.9V16.87H9.9V0Z" fill="#14171A"/>
<path d="M13 21.25C15.7614 21.25 18 19.0114 18 16.25C18 13.4886 15.7614 11.25 13 11.25C10.2386 11.25 8 13.4886 8 16.25C8 19.0114 10.2386 21.25 13 21.25Z" fill="#14171A"/>
<path d="M22.8 21.25C25.5614 21.25 27.8 19.0114 27.8 16.25C27.8 13.4886 25.5614 11.25 22.8 11.25C20.0386 11.25 17.8 13.4886 17.8 16.25C17.8 19.0114 20.0386 21.25 22.8 21.25Z" fill="#14171A"/>
<path d="M22.8 19.25C24.4569 19.25 25.8 17.9069 25.8 16.25C25.8 14.5931 24.4569 13.25 22.8 13.25C21.1431 13.25 19.8 14.5931 19.8 16.25C19.8 17.9069 21.1431 19.25 22.8 19.25Z" fill="#67757F"/>
<path d="M13 19.25C14.6569 19.25 16 17.9069 16 16.25C16 14.5931 14.6569 13.25 13 13.25C11.3431 13.25 10 14.5931 10 16.25C10 17.9069 11.3431 19.25 13 19.25Z" fill="#67757F"/>
<path d="M25.66 5.685C26.5453 5.685 27.263 4.96731 27.263 4.082C27.263 3.19669 26.5453 2.479 25.66 2.479C24.7747 2.479 24.057 3.19669 24.057 4.082C24.057 4.96731 24.7747 5.685 25.66 5.685Z" fill="#FFCC4D"/>
<path d="M25.66 12.159C26.5453 12.159 27.263 11.4413 27.263 10.556C27.263 9.67069 26.5453 8.953 25.66 8.953C24.7747 8.953 24.057 9.67069 24.057 10.556C24.057 11.4413 24.7747 12.159 25.66 12.159Z" fill="#77B255"/>
<path d="M22.423 8.922C23.3083 8.922 24.026 8.20431 24.026 7.319C24.026 6.43369 23.3083 5.716 22.423 5.716C21.5377 5.716 20.82 6.43369 20.82 7.319C20.82 8.20431 21.5377 8.922 22.423 8.922Z" fill="#50A5E6"/>
<path d="M28.897 8.922C29.7823 8.922 30.5 8.20431 30.5 7.319C30.5 6.43369 29.7823 5.716 28.897 5.716C28.0117 5.716 27.294 6.43369 27.294 7.319C27.294 8.20431 28.0117 8.922 28.897 8.922Z" fill="#DD2E44"/>
<path d="M11.073 5.463V3.295C11.073 3.016 10.847 2.79 10.568 2.79H9.01C8.731 2.79 8.505 3.016 8.505 3.295V5.463L9.789 6.748L11.073 5.463V5.463ZM8.504 9.093V11.261C8.504 11.54 8.73 11.766 9.009 11.766H10.567C10.846 11.766 11.072 11.54 11.072 11.261V9.093L9.788 7.808L8.504 9.093ZM13.773 5.993H11.605L10.32 7.278L11.605 8.563H13.773C14.052 8.563 14.278 8.336 14.278 8.058V6.499C14.278 6.22 14.052 5.993 13.773 5.993V5.993ZM7.974 5.993H5.805C5.526 5.993 5.3 6.22 5.3 6.498V8.056C5.3 8.335 5.526 8.561 5.805 8.561H7.973L9.258 7.276L7.974 5.993V5.993Z" fill="#8899A6"/>
</svg>
